<?xml version="1.0" encoding="UTF-8" standalone="no"?>
<!DOCTYPE svg PUBLIC "-//W3C//DTD SVG 1.1//EN"
 "http://www.w3.org/Graphics/SVG/1.1/DTD/svg11.dtd">
<!-- Generated by graphviz version 2.47.2 (20210527.0053)
 -->
<!-- Title: G Pages: 1 -->
<svg width="462pt" height="209pt"
 viewBox="0.00 0.00 462.20 209.20" xmlns="http://www.w3.org/2000/svg" xmlns:xlink="http://www.w3.org/1999/xlink">
<g id="graph0" class="graph" transform="scale(1 1) rotate(0) translate(21.6 187.6)">
<title>G</title>
<polygon fill="#111111" stroke="transparent" points="-21.6,21.6 -21.6,-187.6 440.6,-187.6 440.6,21.6 -21.6,21.6"/>
<!-- App.tsx -->
<g id="node1" class="node">
<title>App.tsx</title>
<path fill="none" stroke="#c6c5fe" d="M206.33,-43C206.33,-43 159.67,-43 159.67,-43 155.83,-43 152,-39.17 152,-35.33 152,-35.33 152,-27.67 152,-27.67 152,-23.83 155.83,-20 159.67,-20 159.67,-20 206.33,-20 206.33,-20 210.17,-20 214,-23.83 214,-27.67 214,-27.67 214,-35.33 214,-35.33 214,-39.17 210.17,-43 206.33,-43"/>
<text text-anchor="middle" x="183" y="-27.8" font-family="Arial" font-size="14.00" fill="#c6c5fe">App.tsx</text>
</g>
<!-- src/global/styles/theme.ts -->
<g id="node2" class="node">
<title>src/global/styles/theme.ts</title>
<path fill="none" stroke="#cfffac" d="M411.33,-64C411.33,-64 257.67,-64 257.67,-64 253.83,-64 250,-60.17 250,-56.33 250,-56.33 250,-48.67 250,-48.67 250,-44.83 253.83,-41 257.67,-41 257.67,-41 411.33,-41 411.33,-41 415.17,-41 419,-44.83 419,-48.67 419,-48.67 419,-56.33 419,-56.33 419,-60.17 415.17,-64 411.33,-64"/>
<text text-anchor="middle" x="334.5" y="-48.8" font-family="Arial" font-size="14.00" fill="#cfffac">src/global/styles/theme.ts</text>
</g>
<!-- App.tsx&#45;&gt;src/global/styles/theme.ts -->
<g id="edge1" class="edge">
<title>App.tsx&#45;&gt;src/global/styles/theme.ts</title>
<path fill="none" stroke="#757575" d="M214.25,-35.75C222.51,-36.91 231.9,-38.23 241.71,-39.61"/>
<polygon fill="#757575" stroke="#757575" points="241.24,-43.07 251.63,-41 242.21,-36.14 241.24,-43.07"/>
</g>
<!-- src/routes/app.routes.tsx -->
<g id="node3" class="node">
<title>src/routes/app.routes.tsx</title>
<path fill="none" stroke="#cfffac" d="M408.83,-23C408.83,-23 260.17,-23 260.17,-23 256.33,-23 252.5,-19.17 252.5,-15.33 252.5,-15.33 252.5,-7.67 252.5,-7.67 252.5,-3.83 256.33,0 260.17,0 260.17,0 408.83,0 408.83,0 412.67,0 416.5,-3.83 416.5,-7.67 416.5,-7.67 416.5,-15.33 416.5,-15.33 416.5,-19.17 412.67,-23 408.83,-23"/>
<text text-anchor="middle" x="334.5" y="-7.8" font-family="Arial" font-size="14.00" fill="#cfffac">src/routes/app.routes.tsx</text>
</g>
<!-- App.tsx&#45;&gt;src/routes/app.routes.tsx -->
<g id="edge2" class="edge">
<title>App.tsx&#45;&gt;src/routes/app.routes.tsx</title>
<path fill="none" stroke="#757575" d="M214.25,-27.45C222.64,-26.33 232.19,-25.05 242.16,-23.72"/>
<polygon fill="#757575" stroke="#757575" points="242.8,-27.17 252.25,-22.37 241.87,-20.23 242.8,-27.17"/>
</g>
<!-- __tests__/App.js -->
<g id="node4" class="node">
<title>__tests__/App.js</title>
<path fill="none" stroke="#c6c5fe" d="M108.33,-43C108.33,-43 7.67,-43 7.67,-43 3.83,-43 0,-39.17 0,-35.33 0,-35.33 0,-27.67 0,-27.67 0,-23.83 3.83,-20 7.67,-20 7.67,-20 108.33,-20 108.33,-20 112.17,-20 116,-23.83 116,-27.67 116,-27.67 116,-35.33 116,-35.33 116,-39.17 112.17,-43 108.33,-43"/>
<text text-anchor="middle" x="58" y="-27.8" font-family="Arial" font-size="14.00" fill="#c6c5fe">__tests__/App.js</text>
</g>
<!-- __tests__/App.js&#45;&gt;App.tsx -->
<g id="edge3" class="edge">
<title>__tests__/App.js&#45;&gt;App.tsx</title>
<path fill="none" stroke="#757575" d="M116.18,-31.5C124.82,-31.5 133.58,-31.5 141.77,-31.5"/>
<polygon fill="#757575" stroke="#757575" points="141.78,-35 151.78,-31.5 141.78,-28 141.78,-35"/>
</g>
<!-- babel.config.js -->
<g id="node5" class="node">
<title>babel.config.js</title>
<path fill="none" stroke="#cfffac" d="M101.83,-84C101.83,-84 14.17,-84 14.17,-84 10.33,-84 6.5,-80.17 6.5,-76.33 6.5,-76.33 6.5,-68.67 6.5,-68.67 6.5,-64.83 10.33,-61 14.17,-61 14.17,-61 101.83,-61 101.83,-61 105.67,-61 109.5,-64.83 109.5,-68.67 109.5,-68.67 109.5,-76.33 109.5,-76.33 109.5,-80.17 105.67,-84 101.83,-84"/>
<text text-anchor="middle" x="58" y="-68.8" font-family="Arial" font-size="14.00" fill="#cfffac">babel.config.js</text>
</g>
<!-- index.js -->
<g id="node6" class="node">
<title>index.js</title>
<path fill="none" stroke="#cfffac" d="M81.33,-125C81.33,-125 34.67,-125 34.67,-125 30.83,-125 27,-121.17 27,-117.33 27,-117.33 27,-109.67 27,-109.67 27,-105.83 30.83,-102 34.67,-102 34.67,-102 81.33,-102 81.33,-102 85.17,-102 89,-105.83 89,-109.67 89,-109.67 89,-117.33 89,-117.33 89,-121.17 85.17,-125 81.33,-125"/>
<text text-anchor="middle" x="58" y="-109.8" font-family="Arial" font-size="14.00" fill="#cfffac">index.js</text>
</g>
<!-- metro.config.js -->
<g id="node7" class="node">
<title>metro.config.js</title>
<path fill="none" stroke="#cfffac" d="M102.83,-166C102.83,-166 13.17,-166 13.17,-166 9.33,-166 5.5,-162.17 5.5,-158.33 5.5,-158.33 5.5,-150.67 5.5,-150.67 5.5,-146.83 9.33,-143 13.17,-143 13.17,-143 102.83,-143 102.83,-143 106.67,-143 110.5,-146.83 110.5,-150.67 110.5,-150.67 110.5,-158.33 110.5,-158.33 110.5,-162.17 106.67,-166 102.83,-166"/>
<text text-anchor="middle" x="58" y="-150.8" font-family="Arial" font-size="14.00" fill="#cfffac">metro.config.js</text>
</g>
</g>
</svg>
